<?xml version="1.0" standalone="no"?>
<!DOCTYPE svg PUBLIC "-//W3C//DTD SVG 20010904//EN"
 "http://www.w3.org/TR/2001/REC-SVG-20010904/DTD/svg10.dtd">
<svg version="1.0" xmlns="http://www.w3.org/2000/svg"
 width="397.000000pt" height="397.000000pt" viewBox="0 0 397.000000 397.000000"
 preserveAspectRatio="xMidYMid meet">
<metadata>
Created by potrace 1.14, written by Peter Selinger 2001-2017
</metadata>
<g transform="translate(0.000000,397.000000) scale(0.100000,-0.100000)"
fill="#000000" stroke="none">
<path d="M554 3545 c-47 -28 -73 -77 -70 -132 2 -38 27 -79 119 -198 92 -120
129 -169 162 -215 22 -30 42 -57 45 -60 3 -3 17 -21 30 -40 13 -19 27 -37 30
-40 4 -3 54 -68 111 -145 58 -77 172 -228 253 -335 81 -107 157 -208 169 -224
54 -72 138 -182 145 -191 4 -5 21 -28 37 -50 17 -22 35 -46 42 -55 6 -8 27
-35 45 -60 86 -114 194 -256 203 -266 48 -50 150 -46 208 10 18 17 125 150
237 296 113 146 238 308 280 362 41 53 112 144 158 203 46 59 87 104 90 100 4
-3 7 -426 7 -938 1 -1057 -5 -986 81 -1027 41 -20 57 -21 233 -18 215 3 227 7
267 86 l21 41 0 1392 c0 988 -3 1401 -11 1423 -15 42 -52 83 -86 95 -16 5
-126 9 -247 8 -254 -2 -243 2 -325 -111 -29 -39 -57 -76 -63 -83 -5 -6 -28
-37 -50 -68 -22 -31 -47 -65 -55 -75 -8 -10 -154 -207 -325 -439 -170 -231
-313 -421 -317 -421 -7 0 -69 79 -309 395 -95 127 -179 237 -186 245 -7 8 -57
76 -113 150 -55 74 -106 142 -113 150 -7 8 -45 59 -85 112 -112 149 -95 143
-358 145 -215 1 -222 1 -260 -22z"/>
<path d="M565 1554 c-41 -21 -60 -44 -73 -85 -7 -22 -10 -179 -9 -444 2 -393
3 -411 22 -437 44 -59 73 -66 270 -67 169 -2 183 0 224 21 30 16 51 36 65 62
18 37 20 61 21 425 0 212 -3 400 -8 416 -21 71 -30 85 -71 105 -38 18 -62 20
-227 20 -147 0 -190 -3 -214 -16z"/>
</g>
</svg>
